<svg preserveAspectRatio="none" width="100%" height="100%" overflow="visible" style="display: block;" viewBox="-5 -5 106 106" fill="none" xmlns="http://www.w3.org/2000/svg">
<g id="runway_brand_qantas_loyalty_points_roo_red" clip-path="url(#clip0_0_9)">
<path id="Vector" d="M77.4885 73.7637C77.4885 73.7637 77.6014 73.7637 77.6579 73.7637C77.7707 73.7637 77.8272 73.7637 77.8836 73.6508C77.94 73.5379 77.9965 73.3686 77.8836 73.2557C71.9577 66.9912 64.6772 61.9683 56.4938 58.7513L54.0106 57.7355C52.7125 57.1711 51.866 55.9295 51.866 54.5185C52.0353 49.157 64.6208 50.2857 65.9189 47.746L66.1446 47.2945C63.5485 45.037 60.5009 43.4004 57.1146 42.4409C57.1146 42.6102 56.9453 43.1746 57.679 44.3598C58.4127 45.545 56.8889 47.5203 54.575 45.4321L54.3492 45.2628C37.7002 29.9683 29.9683 40.0705 18.6808 22.2928C18.5679 22.1235 18.455 22.067 18.2857 22.1799C18.1164 22.2928 18.06 22.4056 18.1164 22.575C27.0335 44.0776 45.3192 39.5626 47.4638 59.5979C47.5767 60.3316 48.0847 60.9524 48.8748 61.0653C59.0335 62.6455 68.9101 66.8783 77.4885 73.7637Z" fill="var(--fill-0, #E40000)"/>
<path id="Vector_2" d="M47.9718 96C21.5026 96 0 74.4409 0 47.9718C0 21.5026 21.5026 0 47.9718 0C74.4409 0 95.9436 21.5026 95.9436 47.9718C95.9436 74.4409 74.4409 95.9436 47.9718 95.9436V96ZM47.9718 2.99118C23.1958 2.99118 2.99118 23.1958 2.99118 47.9718C2.99118 72.7478 23.1958 93.0088 48.0282 93.0088C72.8607 93.0088 93.0653 72.8042 93.0653 47.9718C93.0653 23.1393 72.8042 2.99118 47.9718 2.99118Z" fill="var(--fill-0, #E40000)"/>
</g>
<defs>
<clipPath id="clip0_0_9">
<rect width="96" height="96" fill="white"/>
</clipPath>
</defs>
</svg>
